<svg xmlns="http://www.w3.org/2000/svg" width="1em" height="1em" viewBox="0 0 100 100"><path id="gisFlagStartO0" fill="#5b5b5b" fill-opacity="1" fill-rule="nonzero" stroke="none" stroke-dasharray="none" stroke-dashoffset="0" stroke-linecap="round" stroke-linejoin="round" stroke-miterlimit="4" stroke-opacity="1" stroke-width="7" d="M50 0a3.5 3.5 0 0 0-3.5 3.5V93h-9.57a3.5 3.5 0 0 0-3.5 3.5a3.5 3.5 0 0 0 3.5 3.5h25a3.5 3.5 0 0 0 3.5-3.5a3.5 3.5 0 0 0-3.5-3.5H53.5V47h43a3.5 3.5 0 0 0 3.5-3.5v-40A3.5 3.5 0 0 0 96.5 0h-46a3.5 3.5 0 0 0-.254.01A3.5 3.5 0 0 0 50 0zm4 7h39v33H54V7z" color="#5b5b5b" color-interpolation="sRGB" color-rendering="auto" display="inline" opacity="1" vector-effect="none" visibility="visible"/></svg>