<svg xmlns="http://www.w3.org/2000/svg" width="1em" height="1em" viewBox="0 0 100 100"><path id="gisFlagFinish0" fill="#03738c" fill-opacity="1" fill-rule="nonzero" stroke="none" stroke-dasharray="none" stroke-dashoffset="0" stroke-linecap="round" stroke-linejoin="round" stroke-miterlimit="4" stroke-opacity="1" stroke-width="7" d="M50 0a3.5 3.5 0 0 0-3.5 3.5V93h-9.57a3.5 3.5 0 0 0-3.5 3.5a3.5 3.5 0 0 0 3.5 3.5h25a3.5 3.5 0 0 0 3.5-3.5a3.5 3.5 0 0 0-3.5-3.5H53.5V47h43a3.5 3.5 0 0 0 3.5-3.5v-40A3.5 3.5 0 0 0 96.5 0h-46a3.5 3.5 0 0 0-.254.01A3.5 3.5 0 0 0 50 0zm13.8 7h9.8v7.43h9.8V7H93v7.43h-9.6v9.799H93v9.8h-9.6V40h-9.8v-5.97h-9.8V40H54v-5.97h9.8v-9.801H54v-9.8h9.8V7zm0 7.43v9.799h9.8v-9.8h-9.8zm9.8 9.799v9.8h9.8v-9.8h-9.8z" color="#03738c" color-interpolation="sRGB" color-rendering="auto" display="inline" opacity="1" vector-effect="none" visibility="visible"/></svg>