<svg xmlns="http://www.w3.org/2000/svg" width="1em" height="1em" viewBox="0 0 24 24"><path fill="#255885" d="M2 21q-.825 0-1.413-.588T0 19V5q0-.825.588-1.413T2 3h20q.825 0 1.413.588T24 5v14q0 .825-.588 1.413T22 21H2Zm13.9-2H22V5H2v14h.1q1.05-1.875 2.9-2.938T9 15q2.15 0 4 1.063T15.9 19ZM9 14q1.25 0 2.125-.875T12 11q0-1.25-.875-2.125T9 8q-1.25 0-2.125.875T6 11q0 1.25.875 2.125T9 14Zm6-3h5q.425 0 .713-.288T21 10V7q0-.425-.288-.713T20 6h-5q-.425 0-.713.288T14 7v3q0 .425.288.713T15 11ZM4.55 19h8.9q-.85-.95-2.012-1.475T9 17q-1.275 0-2.425.525T4.55 19ZM9 12q-.425 0-.713-.288T8 11q0-.425.288-.713T9 10q.425 0 .713.288T10 11q0 .425-.288.713T9 12Zm3 0Zm5.5-2.25L15 8V7l2.5 1.75L20 7v1l-2.5 1.75Z"/></svg>